<?xml version="1.0" encoding="UTF-8" ?>
<!DOCTYPE svg PUBLIC "-//W3C//DTD SVG 1.1//EN" "http://www.w3.org/Graphics/SVG/1.1/DTD/svg11.dtd">
<svg width="65pt" height="71pt" viewBox="0 0 65 71" version="1.1" xmlns="http://www.w3.org/2000/svg">
<g id="#c8c8c8ff">
</g>
<g id="#0b221eff">
<path fill="#0b221e" opacity="1.00" d=" M 18.32 11.32 C 19.87 4.94 29.69 3.20 33.05 8.98 C 34.31 12.48 34.35 16.26 34.31 19.94 C 37.06 20.11 40.34 21.94 42.73 19.74 C 45.27 17.77 48.05 16.09 51.23 15.41 C 51.80 15.78 52.94 16.50 53.51 16.87 C 53.62 20.82 51.81 24.34 50.34 27.89 C 50.65 29.80 52.00 31.31 52.67 33.09 C 54.18 36.88 53.63 41.04 53.16 44.97 C 56.03 47.94 58.78 51.14 60.22 55.07 C 60.18 55.58 60.10 56.58 60.06 57.09 C 55.64 58.92 51.21 56.68 47.03 55.33 C 44.34 55.74 42.20 58.03 39.46 58.66 C 38.30 61.59 38.18 65.27 35.79 67.51 C 33.44 67.04 33.19 63.95 33.19 61.90 C 33.00 61.38 32.62 60.35 32.43 59.83 C 29.86 59.68 27.39 58.86 24.84 58.63 C 20.74 60.61 16.26 64.08 11.51 62.42 C 10.36 57.69 14.27 54.20 15.93 50.18 C 13.39 48.28 13.60 44.63 12.60 41.89 C 9.53 40.94 6.55 39.70 3.78 38.08 C 3.44 37.50 2.76 36.34 2.42 35.76 C 5.13 31.53 10.72 31.48 15.13 30.42 C 17.16 27.51 19.68 24.97 22.59 22.93 C 20.54 19.40 17.66 15.63 18.32 11.32 M 24.54 6.73 C 23.32 7.45 22.09 8.15 20.85 8.83 C 17.64 13.04 21.09 17.61 22.91 21.56 C 26.30 21.98 29.44 20.10 32.74 19.62 C 32.92 15.90 33.05 12.07 31.58 8.56 C 29.49 7.09 27.10 6.37 24.54 6.73 M 42.09 21.72 C 44.76 23.10 47.13 24.96 49.29 27.02 C 50.81 23.89 52.20 20.59 51.92 17.02 C 48.03 16.80 45.11 19.75 42.09 21.72 M 14.82 34.83 C 14.70 35.22 14.46 36.01 14.33 36.40 C 14.24 38.89 14.03 41.40 14.39 43.87 C 14.89 47.11 16.96 49.76 18.58 52.51 C 20.87 53.86 22.72 55.91 25.26 56.83 C 29.69 58.96 34.78 58.61 39.45 57.65 C 41.69 56.14 44.25 55.08 46.18 53.15 C 48.97 50.78 50.37 47.32 52.23 44.26 C 53.18 36.57 50.50 27.54 43.10 23.95 C 38.84 21.25 33.70 21.33 28.86 21.56 L 27.78 22.18 C 21.83 24.19 16.83 28.82 14.82 34.83 M 4.37 34.77 C 4.39 35.33 4.43 36.45 4.46 37.02 C 7.00 38.60 9.79 39.77 12.69 40.49 C 12.50 37.50 13.40 34.65 14.38 31.87 C 10.95 32.45 7.52 33.26 4.37 34.77 M 47.79 54.18 C 51.33 55.50 54.97 57.01 58.84 56.53 C 58.70 52.21 55.27 49.35 52.71 46.29 C 51.36 49.09 49.53 51.61 47.79 54.18 M 12.42 61.59 C 16.55 62.12 20.16 59.64 23.69 57.92 C 21.16 56.33 18.71 54.59 16.88 52.19 C 14.47 54.72 12.59 58.04 12.42 61.59 M 34.05 59.64 C 34.29 61.84 34.53 64.04 34.80 66.23 C 36.80 64.42 37.53 61.84 37.80 59.24 C 36.86 59.34 34.98 59.54 34.05 59.64 Z" />
</g>
<g id="#00d4aaff">
<path fill="#00d4aa" opacity="1.00" d=" M 24.54 6.73 C 27.10 6.37 29.49 7.09 31.58 8.56 C 33.05 12.07 32.92 15.90 32.74 19.62 C 29.44 20.10 26.30 21.98 22.91 21.56 C 21.09 17.61 17.64 13.04 20.85 8.83 C 22.09 8.15 23.32 7.45 24.54 6.73 Z" />
<path fill="#00d4aa" opacity="1.00" d=" M 42.09 21.72 C 45.11 19.75 48.03 16.80 51.92 17.02 C 52.20 20.59 50.81 23.89 49.29 27.02 C 47.13 24.96 44.76 23.10 42.09 21.72 Z" />
<path fill="#00d4aa" opacity="1.00" d=" M 24.34 38.06 C 26.07 35.45 28.86 33.67 31.07 31.46 C 34.11 32.15 37.14 32.90 40.15 33.73 C 40.81 36.45 41.78 39.14 41.85 41.96 C 40.14 44.43 37.59 46.19 35.50 48.34 C 32.62 47.53 29.65 47.09 26.78 46.26 C 25.38 43.82 25.02 40.81 24.34 38.06 Z" />
<path fill="#00d4aa" opacity="1.00" d=" M 4.37 34.77 C 7.52 33.26 10.95 32.45 14.38 31.87 C 13.40 34.65 12.50 37.50 12.69 40.49 C 9.79 39.77 7.00 38.60 4.46 37.02 C 4.43 36.45 4.39 35.33 4.37 34.77 Z" />
<path fill="#00d4aa" opacity="1.00" d=" M 47.79 54.18 C 49.53 51.61 51.36 49.09 52.71 46.29 C 55.27 49.35 58.70 52.21 58.84 56.53 C 54.97 57.01 51.33 55.50 47.79 54.18 Z" />
<path fill="#00d4aa" opacity="1.00" d=" M 12.42 61.59 C 12.59 58.04 14.47 54.72 16.88 52.19 C 18.71 54.59 21.16 56.33 23.69 57.92 C 20.16 59.64 16.55 62.12 12.42 61.59 Z" />
</g>
<g id="#999999ff">
<path fill="#999999" opacity="1.00" d=" M 14.82 34.83 C 16.83 28.82 21.83 24.19 27.78 22.18 C 28.37 24.87 29.08 27.54 29.89 30.18 C 28.89 31.31 27.79 32.35 26.69 33.37 C 25.57 34.60 24.32 35.68 22.94 36.59 C 20.27 35.87 17.55 35.30 14.82 34.83 Z" />
<path fill="#999999" opacity="1.00" d=" M 28.86 21.56 C 33.70 21.33 38.84 21.25 43.10 23.95 C 50.50 27.54 53.18 36.57 52.23 44.26 C 50.37 47.32 48.97 50.78 46.18 53.15 C 44.25 55.08 41.69 56.14 39.45 57.65 C 34.78 58.61 29.69 58.96 25.26 56.83 C 22.72 55.91 20.87 53.86 18.58 52.51 C 16.96 49.76 14.89 47.11 14.39 43.87 C 14.03 41.40 14.24 38.89 14.33 36.40 C 17.14 36.97 19.93 37.57 22.72 38.23 C 23.07 41.39 26.59 45.79 23.19 48.15 C 21.78 49.30 20.05 50.71 20.49 52.76 C 23.32 50.69 26.32 46.29 30.26 48.91 L 30.72 48.44 C 32.10 49.01 33.53 49.47 34.82 50.23 C 36.39 52.34 36.30 55.17 36.84 57.63 C 37.39 56.98 37.94 56.34 38.49 55.68 C 37.95 53.57 36.52 51.39 37.21 49.16 C 38.69 46.91 40.78 45.04 43.08 43.65 C 45.92 43.83 48.66 44.68 51.46 45.11 C 50.22 42.27 46.55 42.86 44.17 41.59 C 42.59 39.05 42.35 35.96 41.66 33.11 C 42.99 31.24 46.84 29.72 45.92 27.23 C 43.61 27.89 42.43 30.46 40.45 31.75 C 37.33 31.72 34.36 30.59 31.37 29.86 C 30.66 27.06 29.85 24.28 28.86 21.56 Z" />
</g>
<g id="#c9dcd8ff">
<path fill="#c9dcd8" opacity="1.00" d=" M 27.78 22.18 L 28.86 21.56 C 29.85 24.28 30.66 27.06 31.37 29.86 C 34.36 30.59 37.33 31.72 40.45 31.75 C 42.43 30.46 43.61 27.89 45.92 27.23 C 46.84 29.72 42.99 31.24 41.66 33.11 C 42.35 35.96 42.59 39.05 44.17 41.59 C 46.55 42.86 50.22 42.27 51.46 45.11 C 48.66 44.68 45.92 43.83 43.08 43.65 C 40.78 45.04 38.69 46.91 37.21 49.16 C 36.52 51.39 37.95 53.57 38.49 55.68 C 37.94 56.34 37.39 56.98 36.84 57.63 C 36.30 55.17 36.39 52.34 34.82 50.23 C 33.53 49.47 32.10 49.01 30.72 48.44 L 30.26 48.91 C 26.32 46.29 23.32 50.69 20.49 52.76 C 20.05 50.71 21.78 49.30 23.19 48.15 C 26.59 45.79 23.07 41.39 22.72 38.23 C 19.93 37.57 17.14 36.97 14.33 36.40 C 14.46 36.01 14.70 35.22 14.82 34.83 C 17.55 35.30 20.27 35.87 22.94 36.59 C 24.32 35.68 25.57 34.60 26.69 33.37 C 27.79 32.35 28.89 31.31 29.89 30.18 C 29.08 27.54 28.37 24.87 27.78 22.18 M 24.34 38.06 C 25.02 40.81 25.38 43.82 26.78 46.26 C 29.65 47.09 32.62 47.53 35.50 48.34 C 37.59 46.19 40.14 44.43 41.85 41.96 C 41.78 39.14 40.81 36.45 40.15 33.73 C 37.14 32.90 34.11 32.15 31.07 31.46 C 28.86 33.67 26.07 35.45 24.34 38.06 Z" />
</g>
<g id="#00c29cff">
<path fill="#00c29c" opacity="1.00" d=" M 34.05 59.64 C 34.98 59.54 36.86 59.34 37.80 59.24 C 37.53 61.84 36.80 64.42 34.80 66.23 C 34.53 64.04 34.29 61.84 34.05 59.64 Z" />
</g>
</svg>
